HIERARCHY
ROOT Hips
{
	OFFSET 0.00000 0.00000 0.00000
	CHANNELS 6 Xposition Yposition Zposition Zrotation Yrotation Xrotation 
	JOINT LHipJoint
	{
		OFFSET 0 0 0
		CHANNELS 3 Zrotation Yrotation Xrotation
		JOINT LeftUpLeg
		{
			OFFSET 1.57093 -1.69714 0.87455
			CHANNELS 3 Zrotation Yrotation Xrotation
			JOINT LeftLeg
			{
				OFFSET 2.48056 -6.81529 0.00000
				CHANNELS 3 Zrotation Yrotation Xrotation
				JOINT LeftFoot
				{
					OFFSET 2.62558 -7.21374 0.00000
					CHANNELS 3 Zrotation Yrotation Xrotation
					JOINT LeftToeBase
					{
						OFFSET 0.17911 -0.49210 2.16707
						CHANNELS 3 Zrotation Yrotation Xrotation
						End Site
						{
							OFFSET 0.00000 -0.00000 1.11848
						}
					}
				}
			}
		}
	}
	JOINT RHipJoint
	{
		OFFSET 0 0 0
		CHANNELS 3 Zrotation Yrotation Xrotation
		JOINT RightUpLeg
		{
			OFFSET -1.69739 -1.69715 0.87455
			CHANNELS 3 Zrotation Yrotation Xrotation
			JOINT RightLeg
			{
				OFFSET -2.33658 -6.41972 0.00000
				CHANNELS 3 Zrotation Yrotation Xrotation
				JOINT RightFoot
				{
					OFFSET -2.60856 -7.16696 0.00000
					CHANNELS 3 Zrotation Yrotation Xrotation
					JOINT RightToeBase
					{
						OFFSET -0.20854 -0.57296 2.11053
						CHANNELS 3 Zrotation Yrotation Xrotation
						End Site
						{
							OFFSET -0.00000 -0.00000 1.09848
						}
					}
				}
			}
		}
	}
	JOINT LowerBack
	{
		OFFSET 0 0 0
		CHANNELS 3 Zrotation Yrotation Xrotation
		JOINT Spine
		{
			OFFSET 0.02563 2.15732 -0.03270
			CHANNELS 3 Zrotation Yrotation Xrotation
			JOINT Spine1
			{
				OFFSET 0.00281 2.14662 0.09285
				CHANNELS 3 Zrotation Yrotation Xrotation
				JOINT Neck
				{
					OFFSET 0 0 0
					CHANNELS 3 Zrotation Yrotation Xrotation
					JOINT Neck1
					{
						OFFSET -0.04440 1.68397 0.17601
						CHANNELS 3 Zrotation Yrotation Xrotation
						JOINT Head
						{
							OFFSET 0.06040 1.66995 -0.35615
							CHANNELS 3 Zrotation Yrotation Xrotation
							End Site
							{
								OFFSET 0.02405 1.72189 -0.14044
							}
						}
					}
				}
				JOINT LeftShoulder
				{
					OFFSET 0 0 0
					CHANNELS 3 Zrotation Yrotation Xrotation
					JOINT LeftArm
					{
						OFFSET 2.98955 1.90907 -0.21660
						CHANNELS 3 Zrotation Yrotation Xrotation
						JOINT LeftForeArm
						{
							OFFSET 4.91377 -0.00000 0.00000
							CHANNELS 3 Zrotation Yrotation Xrotation
							JOINT LeftHand
							{
								OFFSET 3.00291 -0.00000 -0.00000
								CHANNELS 3 Zrotation Yrotation Xrotation
								JOINT LeftFingerBase
								{
									OFFSET 0 0 0
									CHANNELS 3 Zrotation Yrotation Xrotation
									JOINT LeftHandIndex1
									{
										OFFSET 0.45092 -0.00000 -0.00000
										CHANNELS 3 Zrotation Yrotation Xrotation
										End Site
										{
											OFFSET 0.36355 -0.00000 -0.00000
										}
									}
								}
								JOINT LThumb
								{
									OFFSET 0 0 0
									CHANNELS 3 Zrotation Yrotation Xrotation
									End Site
									{
										OFFSET 0.36910 -0.00000 0.36910
									}
								}
							}
						}
					}
				}
				JOINT RightShoulder
				{
					OFFSET 0 0 0
					CHANNELS 3 Zrotation Yrotation Xrotation
					JOINT RightArm
					{
						OFFSET -2.80452 1.90886 -0.21152
						CHANNELS 3 Zrotation Yrotation Xrotation
						JOINT RightForeArm
						{
							OFFSET -4.86725 -0.00000 0.00000
							CHANNELS 3 Zrotation Yrotation Xrotation
							JOINT RightHand
							{
								OFFSET -3.17144 -0.00000 -0.00000
								CHANNELS 3 Zrotation Yrotation Xrotation
								JOINT RightFingerBase
								{
									OFFSET 0 0 0
									CHANNELS 3 Zrotation Yrotation Xrotation
									JOINT RightHandIndex1
									{
										OFFSET -0.41937 -0.00000 -0.00000
										CHANNELS 3 Zrotation Yrotation Xrotation
										End Site
										{
											OFFSET -0.33810 -0.00000 -0.00000
										}
									}
								}
								JOINT RThumb
								{
									OFFSET 0 0 0
									CHANNELS 3 Zrotation Yrotation Xrotation
									End Site
									{
										OFFSET -0.34327 -0.00000 0.34327
									}
								}
							}
						}
					}
				}
			}
		}
	}
}
MOTION
Frames: 15
Frame Time: 0.016
0.00 0.00 0.00 0 0 0 0 0 0 -21 0 0 0 0 0 0 0 0 0 0 0 0 0 0 21 0 0 0 0 0 0 0 0 0 0 0 0 0 0 0 0 0 0 0 0 0 0 -16 0 0 21 0 0 11 0 0 0 -8 0 0 0 0 0 0 0 0 0 0 0 0 0 0 0 0 0 0 0 0 8 0 0 0 0 0 0 0 0 0 0 0 0 0 0 0 0 0
0.00 0.00 0.00 171.3290 -3.2684 68.5292 0.0000 0.0000 0.0000 -21.4165 3.8034 23.5732 2.6759 10.1508 29.4666 -0.3301 15.1818 6.5414 1.8281 8.4985 24.2389 0.0000 0.0000 0.0000 30.2664 -0.0091 25.9204 -1.0372 -6.4774 18.1760 -2.1396 -9.1035 26.2688 -0.3498 -3.8002 10.5151 6.2208 -4.3962 34.7084 -2.5147 -2.6706 3.3010 -5.0478 -1.1314 -14.4479 -3.7275 2.5386 -5.1967 -9.3274 11.0251 33.6076 -1.1400 5.4488 12.5091 -0.0000 -0.0000 0.0000 54.9444 -43.5813 -38.7430 7.7677 -13.1757 -0.8984 -0.0000 -0.0000 21.7898 13.5565 -4.1236 -0.9933 -7.1250 0.0000 -0.0000 -9.8517 25.7222 4.6651 -0.0000 -0.0000 0.0000 66.7313 -28.5555 27.4201 -16.3864 26.0417 -3.8140 0.0000 -0.0000 -23.1788 -21.0640 -2.1455 0.8261 7.1250 -0.0000 -0.0000 4.4528 -32.2578 1.3926
0.00 0.00 0.00 171.7290 -4.7073 66.1930 0.0000 0.0000 0.0000 -19.7124 8.2936 32.7714 2.8095 10.3801 30.2167 1.4992 7.0204 21.9196 0.5963 4.9434 13.7473 0.0000 0.0000 0.0000 30.0041 -1.1851 29.9540 -0.0608 -1.5915 4.3780 -0.5661 -17.3854 17.0582 -0.5171 -4.6087 12.7959 6.1225 -4.2656 37.0204 -0.8343 -1.7816 3.9072 -3.5112 -0.5200 -14.3076 -5.1900 2.2412 -5.6460 -10.3446 11.3745 33.0872 -1.1914 5.4257 12.4511 -0.0000 0.0000 0.0000 62.7945 -36.4013 -61.2425 6.3298 -10.8110 -0.5996 -0.0000 -0.0000 48.6009 17.0481 -11.6754 -3.5510 -7.1250 0.0000 -0.0000 -7.0712 17.8386 4.6004 -0.0000 0.0000 0.0000 67.1436 -26.0760 24.1546 -10.2599 17.1450 -1.5507 0.0000 -0.0000 -16.2992 -9.0185 -5.0976 0.8079 7.1250 -0.0000 -0.0000 14.5567 -34.8329 3.7348
0.00 0.00 0.00 173.5190 -9.6820 63.9293 0.0000 0.0000 0.0000 -16.5903 12.6392 30.6331 4.6286 12.9530 39.1927 3.2403 11.1467 32.5308 2.7048 10.2011 29.6303 0.0000 0.0000 0.0000 26.3770 -2.9368 35.6816 0.0000 0.0000 -0.0000 -0.1293 -9.9635 8.9738 -0.3610 -3.8596 10.6821 2.2332 -3.1259 39.9541 0.1566 -1.3052 4.2827 -0.5941 0.0656 -14.7920 -6.8766 7.6413 -7.0303 -7.1773 11.6855 36.8015 -0.7915 0.6714 13.8702 0.0000 -0.0000 0.0000 69.7863 -24.5078 -73.5557 6.8584 -11.6860 -0.7027 -0.0000 -0.0000 52.6794 19.3764 -13.6297 -4.7375 -7.1250 0.0000 -0.0000 -5.4908 15.6096 3.8287 0.0000 -0.0000 0.0000 69.1944 -19.5364 -2.5606 -5.1916 8.9074 -0.4046 0.0000 0.0000 4.1448 2.3174 -10.9307 -0.4397 7.1250 -0.0000 -0.0000 25.2918 -39.5475 3.6761
0.00 0.00 0.00 173.9670 -12.0412 64.8035 0.0000 0.0000 0.0000 -18.9052 9.0562 23.9974 4.7505 13.0971 39.7332 1.5975 8.8726 22.6437 1.4034 7.4936 21.1862 0.0000 0.0000 0.0000 24.9964 -4.8563 41.6241 0.0000 -0.0000 0.0000 -1.3416 -8.9161 20.7584 -0.5542 -4.7690 13.2508 2.1640 -0.6743 39.3519 0.1174 -1.3826 4.1386 -0.2077 -1.3644 -14.7235 -7.2979 7.5945 -7.1513 -7.0090 11.7164 36.7396 -0.6315 0.7024 13.8298 -0.0000 0.0000 0.0000 72.7379 -19.2299 -71.2853 7.7031 -13.0705 -0.8838 -0.0000 -0.0000 42.1413 18.7904 -14.0452 -4.7203 -7.1250 0.0000 -0.0000 -5.9043 15.2314 4.1683 -0.0000 0.0000 0.0000 69.5955 -14.3224 -35.3409 -3.3152 5.7199 -0.1657 0.0000 0.0000 38.9823 6.7958 -10.6585 -1.2626 7.1250 -0.0000 -0.0000 28.7585 -38.9078 4.7942
0.00 0.00 0.00 173.0820 -12.9010 69.9722 0.0000 0.0000 0.0000 -18.8871 4.3648 16.1414 3.8124 11.9064 35.4018 0.0613 13.7893 10.4031 1.4365 7.5776 21.4383 0.0000 0.0000 0.0000 27.2953 -4.3588 41.2323 -0.0580 -1.5536 4.2735 -4.1065 -8.4106 36.9713 -0.5583 -4.7861 13.2994 1.6151 -0.3046 34.8225 -0.1139 -0.7805 3.1118 -0.5476 -0.8692 -14.3262 -7.2230 7.8945 -7.2565 -7.2840 12.2576 35.9495 -0.6436 1.0372 13.5261 -0.0000 0.0000 0.0000 72.9943 -14.1106 -63.8370 10.4472 -17.4360 -1.6063 -0.0000 -0.0000 27.4910 18.9294 -16.0625 -5.4205 -7.1250 0.0000 -0.0000 -5.8804 13.1158 4.4164 -0.0000 0.0000 0.0000 70.5780 -8.3804 -67.0065 -2.9841 5.1523 -0.1343 0.0000 0.0000 68.2429 4.7708 -11.3735 -0.9429 7.1250 -0.0000 -0.0000 27.4228 -39.7263 3.9115
0.00 0.00 0.00 173.4910 -13.1362 69.8741 0.0000 0.0000 0.0000 -17.9955 1.9716 17.8320 2.7608 10.2973 29.9450 -0.9719 17.8030 -1.4727 2.6161 10.0459 29.1256 0.0000 0.0000 0.0000 31.1679 -6.4473 40.7649 -0.3261 -3.6706 10.1517 -4.5923 -14.3934 39.0521 -1.0132 -6.4044 17.9624 0.4803 0.0860 35.8670 0.2254 -0.6665 2.8569 0.3994 -0.7481 -15.0309 -7.6587 8.1140 -7.4267 -7.9809 12.8238 34.8500 -0.7291 1.2770 13.1269 0.0000 0.0000 0.0000 72.6118 -9.8183 -66.3241 13.1617 -21.5237 -2.5123 -0.0000 -0.0000 22.1631 17.6860 -16.2642 -5.1033 -7.1250 0.0000 -0.0000 -6.7198 13.0406 5.0660 0.0000 0.0000 0.0000 71.4075 -3.0567 -98.6715 -3.8240 6.5893 -0.2202 0.0000 0.0000 96.7847 3.5370 -11.2949 -0.6936 7.1250 -0.0000 -0.0000 26.4045 -39.7678 3.7095
0.00 0.00 0.00 174.0920 -13.1466 67.9221 0.0000 0.0000 0.0000 -16.9518 3.8195 23.8248 2.8076 10.3769 30.2061 -0.6331 15.5968 1.7570 2.1641 9.1999 26.4227 0.0000 0.0000 0.0000 33.3571 -9.7185 34.8124 -0.8548 -5.8964 16.4841 -3.1138 -16.5227 32.2569 -1.2457 -7.0768 19.9431 0.5896 0.3717 38.4332 0.0128 -0.4421 2.9643 0.0485 -0.7315 -15.7743 -7.3225 8.3339 -7.2496 -8.8602 13.2105 34.0930 -1.0610 1.4603 12.8773 0.0000 -0.0000 0.0000 71.8239 -6.6832 -70.7506 14.9320 -24.0513 -3.1982 -0.0000 -0.0000 21.2107 16.9599 -17.3140 -5.1860 -7.1250 0.0000 -0.0000 -7.2385 12.0374 5.6158 0.0000 -0.0000 0.0000 72.6989 2.9953 -131.1573 -5.1750 8.8794 -0.4021 0.0000 0.0000 133.2550 0.0307 -8.9813 -0.0048 7.1250 -0.0000 -0.0000 22.8147 -37.9536 4.2256
0.00 0.00 0.00 174.1310 -12.2315 67.4045 0.0000 0.0000 0.0000 -14.0197 6.9556 30.7654 3.1044 10.8621 31.8163 0.8222 8.8319 16.3982 0.9181 6.1049 17.0892 0.0000 0.0000 0.0000 37.2983 -8.1273 30.1620 -0.6305 -5.0807 14.1388 -1.2593 -22.3201 23.8721 -1.9437 -8.7478 25.0094 2.1692 0.1432 39.0299 0.1084 -0.0778 3.0690 -0.8415 -0.6936 -15.8528 -6.6508 9.1789 -6.9813 -11.6779 14.7318 33.0259 -2.0917 1.7925 12.7770 -0.0000 -0.0000 0.0000 69.3238 -3.8608 -73.5051 14.7729 -23.8287 -3.1336 -0.0000 -0.0000 20.0754 13.5117 -16.1783 -3.8304 -7.1250 0.0000 -0.0000 -9.5059 13.5301 7.1188 -0.0000 -0.0000 0.0000 72.8210 9.7957 -139.3547 -5.8922 10.0823 -0.5202 0.0000 0.0000 139.9970 -2.0907 -7.6413 0.2781 7.1250 -0.0000 -0.0000 20.7250 -36.8617 4.3824
0.00 0.00 0.00 177.7810 -14.8358 66.9702 0.0000 0.0000 0.0000 -11.5453 9.1428 32.4038 4.4850 12.7793 38.5477 2.7515 5.6604 30.1994 1.1376 6.7736 19.0464 0.0000 0.0000 0.0000 31.3088 -6.6364 30.5854 0.0000 -0.0000 0.0000 0.4524 -18.8110 8.7837 -2.1002 -9.0718 26.0201 1.4941 0.9233 38.8306 -0.0987 0.7451 2.6427 -1.1167 -0.2436 -16.2807 -5.3226 9.4931 -5.8816 -15.0338 15.3176 29.9208 -3.3993 2.2930 11.7540 0.0000 -0.0000 0.0000 53.7417 4.7932 -50.8070 15.2913 -24.5504 -3.3461 -0.0000 0.0000 -4.7972 1.4605 3.2837 0.0837 -7.1250 0.0000 -0.0000 -20.1523 32.7413 6.3979 0.0000 -0.0000 0.0000 66.7262 27.7478 -150.4893 -6.4160 10.9543 -0.6158 0.0000 0.0000 148.3870 -6.7932 -7.1996 0.8553 7.1250 -0.0000 -0.0000 16.8028 -36.7494 3.5332
0.00 0.00 0.00 180.4340 -18.4819 67.4880 0.0000 0.0000 0.0000 -18.9235 1.7854 18.4254 5.6347 14.0648 43.4974 1.5370 9.2632 22.2274 2.4838 9.8083 28.3582 0.0000 0.0000 0.0000 25.2134 -8.2429 38.9460 0.0000 -0.0000 0.0000 -1.4851 -10.7262 21.9768 -1.1102 -6.6942 18.8127 -0.6438 2.3342 36.7495 -1.5623 1.5481 2.2587 -1.9723 0.2661 -16.0641 -1.7094 8.7239 -6.8474 -13.9209 14.3328 33.1162 -3.8032 2.2131 13.3666 0.0000 0.0000 0.0000 41.0429 9.6434 -15.9976 15.5073 -24.8480 -3.4363 -0.0000 -0.0000 4.3679 -9.7192 1.5623 -0.2675 -7.1250 0.0000 -0.0000 -27.9992 30.5893 11.0798 0.0000 0.0000 0.0000 58.0871 42.6206 -166.9409 -7.4511 12.6593 -0.8277 0.0000 0.0000 155.4860 -10.8309 -9.2816 1.7674 7.1250 -0.0000 -0.0000 13.9230 -39.0575 2.0860
0.00 0.00 0.00 180.1930 -18.6150 71.8336 0.0000 0.0000 0.0000 -20.2459 -2.4145 10.1532 4.7385 13.0831 39.6805 0.6138 10.1690 14.6807 1.5143 7.7713 22.0216 0.0000 0.0000 0.0000 25.0481 -7.0762 40.0721 0.0000 -0.0000 0.0000 -4.4538 -5.3456 38.9849 -0.4538 -4.3215 11.9831 -0.8705 2.4618 31.6611 -1.8097 1.9616 1.6890 -2.2275 0.5921 -14.6164 0.8029 9.2795 -10.2034 -13.7340 15.6207 38.1682 -4.3642 2.2580 17.0479 -0.0000 -0.0000 0.0000 33.0602 13.6026 -2.9971 18.9480 -29.3540 -5.0053 -0.0000 0.0000 -21.4026 -15.1869 14.6521 -3.9279 -7.1250 0.0000 -0.0000 -36.9412 41.4784 3.8084 -0.0000 -0.0000 0.0000 50.2926 51.3869 -179.6879 -7.8273 13.2725 -0.9121 0.0000 0.0000 164.9020 -11.3842 -9.2637 1.8565 7.1250 -0.0000 -0.0000 13.4515 -39.0819 2.0040
0.00 0.00 0.00 180.3010 -18.2813 72.7167 0.0000 0.0000 0.0000 -21.2240 -5.0754 8.6072 3.3610 11.2576 33.1538 -0.2580 14.0404 6.4137 1.9659 8.7948 25.1554 0.0000 0.0000 0.0000 24.8359 -7.2077 42.5988 0.0000 0.0000 -0.0000 -5.5552 -4.6051 43.9624 -0.2160 -2.9921 8.2568 -0.9848 2.3706 30.4427 -1.4468 1.9357 1.8044 -1.7301 0.6267 -13.9590 0.4581 9.3867 -10.7591 -14.1355 16.0050 37.2541 -4.2940 2.4358 16.7615 0.0000 0.0000 0.0000 23.2713 19.3722 7.1792 20.5785 -31.3330 -5.8292 -0.0000 0.0000 -30.4819 -21.0584 16.1143 -6.0999 -7.1250 0.0000 -0.0000 -41.9884 41.9533 3.9617 0.0000 0.0000 0.0000 33.5508 58.8374 148.6040 -9.3620 15.7355 -1.2965 0.0000 -0.0000 -170.6470 -12.7970 -8.9142 2.0158 7.1250 -0.0000 -0.0000 12.1815 -38.8404 1.8814
0.00 0.00 0.00 180.5530 -17.7392 71.5284 0.0000 0.0000 0.0000 -22.7763 -6.2351 11.3670 2.5193 9.8729 28.5662 -0.5930 14.7628 0.9640 1.4960 7.7262 21.8854 0.0000 0.0000 0.0000 24.6734 -7.7117 44.7459 0.0000 -0.0000 0.0000 -5.1749 -10.3819 41.6681 -0.2743 -3.3686 9.3066 -1.0929 2.1743 31.5218 -0.7663 1.6568 2.2854 -0.8310 0.4936 -13.9025 -0.0024 9.5993 -11.4420 -14.3534 16.5826 37.2664 -4.2035 2.5131 17.0139 -0.0000 -0.0000 0.0000 13.5881 23.9780 13.6592 20.8988 -31.7100 -5.9966 -0.0000 0.0000 -34.2913 -25.3062 16.2940 -7.5567 -7.1250 0.0000 -0.0000 -44.9646 41.5133 5.0774 -0.0000 -0.0000 0.0000 14.2776 62.9391 121.9217 -11.2754 18.7092 -1.8633 0.0000 -0.0000 -150.5300 -15.2865 -9.4712 2.5751 7.1250 -0.0000 -0.0000 10.1701 -39.5928 1.3717
0.00 0.00 0.00 180.4310 -16.0695 69.7146 0.0000 0.0000 0.0000 -24.1940 -5.7519 16.5788 2.3117 9.4871 27.3313 -0.5447 13.0050 -3.4712 0.7668 5.5917 15.6043 0.0000 0.0000 0.0000 26.4807 -6.2275 37.9206 -0.4846 -4.4637 12.3849 -4.0165 -11.8023 36.3815 -0.4097 -4.1091 11.3839 0.9131 1.6688 33.7477 -0.6283 1.6146 2.6061 -1.7683 0.3009 -14.4205 0.2907 9.1998 -11.2945 -13.8015 15.7726 37.4039 -4.1363 2.3674 16.8794 0.0000 0.0000 0.0000 2.6811 28.0431 21.4599 21.0709 -31.9111 -6.0874 -0.0000 0.0000 -38.0761 -29.7799 16.7148 -9.3460 -7.1250 0.0000 -0.0000 -47.9774 41.1682 6.2722 0.0000 0.0000 0.0000 -10.4001 63.0171 91.1860 -13.7915 22.4358 -2.7480 0.0000 -0.0000 -125.2880 -17.8853 -11.4013 3.6501 7.1250 -0.0000 -0.0000 8.2799 -41.7989 0.6588
